HIERARCHY
ROOT Hips
{
	OFFSET -0.179506 -22.333345 2.821913
	CHANNELS 6 Xposition Yposition Zposition Zrotation Yrotation Xrotation 
	JOINT LeftUpLeg
	{
		OFFSET 6.951974 -9.140623 -0.681533
		CHANNELS 3 Zrotation Yrotation Xrotation
		JOINT LeftLeg
		{
			OFFSET 3.427654 -37.519855 -0.449580
			CHANNELS 3 Zrotation Yrotation Xrotation
			JOINT LeftFoot
			{
				OFFSET -1.359570 -39.796059 -4.369333
				CHANNELS 3 Zrotation Yrotation Xrotation
				JOINT LeftToe
				{
					OFFSET 2.635814 -5.579078 11.928840
					CHANNELS 3 Zrotation Yrotation Xrotation
					End Site
					{
						OFFSET 0.000000 0.000000 0.000000
					}
				}
			}
		}
	}
	JOINT RightUpLeg
	{
		OFFSET -6.767048 -9.052170 -0.431982
		CHANNELS 3 Zrotation Yrotation Xrotation
		JOINT RightLeg
		{
			OFFSET -3.829005 -38.256897 -0.885003
			CHANNELS 3 Zrotation Yrotation Xrotation
			JOINT RightFoot
			{
				OFFSET 1.577377 -39.841461 -4.231180
				CHANNELS 3 Zrotation Yrotation Xrotation
				JOINT RightToe
				{
					OFFSET -2.537174 -4.814398 12.334795
					CHANNELS 3 Zrotation Yrotation Xrotation
					End Site
					{
						OFFSET 0.000000 0.000000 0.000000
					}
				}
			}
		}
	}
	JOINT Spine
	{
		OFFSET -0.253288 10.896323 -2.669631
		CHANNELS 3 Zrotation Yrotation Xrotation
		JOINT Spine1
		{
			OFFSET 0.548704 13.518043 0.109247
			CHANNELS 3 Zrotation Yrotation Xrotation
			JOINT Spine2
			{
				OFFSET 0.145701 5.292222 2.542457
				CHANNELS 3 Zrotation Yrotation Xrotation
				JOINT Neck
				{
					OFFSET -0.277840 21.387037 -4.285703
					CHANNELS 3 Zrotation Yrotation Xrotation
					JOINT Head
					{
						OFFSET 0.515184 6.496960 5.134897
						CHANNELS 3 Zrotation Yrotation Xrotation
						End Site
						{
							OFFSET 0.000000 0.000000 0.000000
						}
					}
				}
				JOINT LeftShoulder
				{
					OFFSET 7.884473 12.174932 -3.408961
					CHANNELS 3 Zrotation Yrotation Xrotation
					JOINT LeftArm
					{
						OFFSET 9.097692 3.046888 -0.886815
						CHANNELS 3 Zrotation Yrotation Xrotation
						JOINT LeftForeArm
						{
							OFFSET 25.961220 -1.277207 -2.745643
							CHANNELS 3 Zrotation Yrotation Xrotation
							JOINT LeftHand
							{
								OFFSET 24.923361 0.898606 -0.117091
								CHANNELS 3 Zrotation Yrotation Xrotation
								End Site
								{
									OFFSET 0.000000 0.000000 0.000000
								}
							}
						}
					}
				}
				JOINT RightShoulder
				{
					OFFSET -8.175920 11.883285 -3.861528
					CHANNELS 3 Zrotation Yrotation Xrotation
					JOINT RightArm
					{
						OFFSET -9.601238 3.255117 -0.914307
						CHANNELS 3 Zrotation Yrotation Xrotation
						JOINT RightForeArm
						{
							OFFSET -25.374195 -1.332924 -2.140099
							CHANNELS 3 Zrotation Yrotation Xrotation
							JOINT RightHand
							{
								OFFSET -25.529810 0.777228 -0.555919
								CHANNELS 3 Zrotation Yrotation Xrotation
								End Site
								{
									OFFSET 0.000000 0.000000 0.000000
								}
							}
						}
					}
				}
			}
		}
	}
}
MOTION
Frames: 18
Frame Time: 0.033333
325.789978 305.190491 92.010544 138.941807 0.044818 86.305547 -0.885338 -2.367605 7.149221 1.908861 -8.678050 -5.301103 -1.735983 4.886647 1.674440 nan nan nan -0.416457 -2.405441 7.617035 0.617082 -1.069356 -2.151707 8.122162 -3.173819 1.611270 nan nan nan 0.628240 3.753986 1.307657 0.626547 -1.983659 7.381829 1.350157 -1.768395 0.376683 -1.941564 15.915073 3.440390 2.631970 11.344959 -7.694062 -19.736666 0.877282 1.458439 -60.134185 -5.286584 6.715235 6.768064 -24.446137 -8.470243 -11.055430 -16.703286 -12.548868 20.147786 1.136768 3.085140 60.589143 6.311781 9.792294 -12.731433 24.745084 -12.857980 9.920021 14.272241 -12.377223 
325.757385 305.153656 92.011803 138.992221 0.059537 86.337191 -0.844133 -2.458072 6.879957 1.774275 -8.712851 -4.932001 -1.653981 4.892713 1.491486 nan nan nan -0.395745 -2.407313 7.529650 0.616243 -1.025319 -2.104199 8.087124 -3.211035 1.625427 nan nan nan 0.703643 3.712731 1.419494 0.601416 -2.009237 7.107993 1.325811 -1.736868 0.538663 -2.003871 15.709508 3.102789 2.628730 11.201605 -7.266652 -19.862497 0.859244 1.530520 -59.977449 -5.403734 6.579973 6.604736 -24.462098 -8.569897 -10.705079 -16.608300 -12.901474 20.193780 1.207792 3.218116 60.552461 6.391965 9.771430 -12.800276 24.749913 -12.972490 9.700911 14.206364 -12.641160 
325.754730 305.151245 92.012047 138.991272 0.065553 86.345210 -0.849520 -2.458459 6.902393 1.795531 -8.728951 -4.992444 -1.644458 4.901954 1.489753 nan nan nan -0.390944 -2.406132 7.522566 0.612220 -1.015266 -2.109944 8.090489 -3.217310 1.630985 nan nan nan 0.706284 3.702212 1.410427 0.599907 -2.011177 7.082600 1.324903 -1.734048 0.536172 -2.004108 15.678137 3.083335 2.635238 11.201264 -7.200616 -19.871683 0.868965 1.539204 -59.959967 -5.395206 6.579420 6.591781 -24.477364 -8.563293 -10.673449 -16.603213 -12.910172 20.194478 1.212502 3.234387 60.546789 6.383044 9.781898 -12.799226 24.753397 -12.965661 9.684027 14.207240 -12.657354 
325.755951 305.151825 92.013046 138.990808 0.072095 86.370039 -0.853667 -2.467912 6.905580 1.825571 -8.737971 -5.042952 -1.623806 4.922260 1.471914 nan nan nan -0.380498 -2.400782 7.510950 0.609771 -0.989797 -2.143599 8.081354 -3.228147 1.638690 nan nan nan 0.713211 3.680374 1.380728 0.600880 -2.012968 7.063540 1.324288 -1.724238 0.521093 -1.997288 15.588720 3.027809 2.652005 11.171834 -7.040037 -19.913305 0.919681 1.547792 -59.878196 -5.383630 6.578497 6.689325 -24.685533 -8.497568 -10.512304 -16.676670 -12.798899 20.234290 1.216756 3.290306 60.483673 6.359835 9.779007 -12.787170 24.812401 -12.911367 9.580942 14.247303 -12.633518 
325.749847 305.157532 92.002502 138.984959 0.073199 86.393570 -0.836205 -2.497356 6.731498 1.739107 -8.706399 -4.759685 -1.614175 4.904464 1.380476 nan nan nan -0.365545 -2.424375 7.513064 0.597277 -0.983484 -2.214037 8.060638 -3.267137 1.645067 nan nan nan 0.710710 3.697043 1.351364 0.610016 -2.040893 7.028187 1.326189 -1.713782 0.568708 -2.015091 15.621979 3.077453 2.653416 11.188610 -7.075102 -19.854500 0.925255 1.510238 -59.947554 -5.446060 6.526341 6.458087 -24.331257 -8.676439 -10.510684 -16.582294 -13.031850 20.159393 1.232644 3.306529 60.507559 6.406306 9.769259 -12.689893 24.719960 -12.986935 9.581693 14.251764 -12.710909 
325.709900 305.346039 91.972580 138.352458 0.258500 86.375876 -0.952947 -2.292276 7.438142 2.749568 -8.815858 -5.983435 -2.698222 4.590287 1.850397 nan nan nan -0.328201 -2.230230 7.525273 0.581650 -0.865969 -2.191552 8.766126 -2.895525 1.707951 nan nan nan 1.415359 4.008252 0.830122 0.614264 -1.750610 7.602755 0.985110 -1.723010 0.789815 -2.351325 15.880590 3.373865 2.674934 11.155703 -8.157099 -19.545323 0.917442 1.031810 -60.502971 -5.549898 6.278366 6.265074 -23.727206 -9.733847 -11.839934 -17.396898 -13.025981 19.594911 0.831164 2.809367 60.844622 6.441758 9.632560 -11.988605 25.494317 -12.641445 11.595778 15.633794 -12.312997 
325.702240 305.340332 91.966049 138.347726 0.284070 86.401398 -0.962289 -2.272537 7.511219 2.861325 -8.869894 -6.203728 -2.777700 4.597682 1.869405 nan nan nan -0.273234 -2.205140 7.483694 0.545155 -0.857540 -2.173808 8.784446 -2.889281 1.703144 nan nan nan 1.385922 4.017861 0.803035 0.633812 -1.758157 7.624827 1.006606 -1.765968 0.719421 -2.311983 15.913309 3.526241 2.742624 11.297122 -8.229577 -19.427040 0.916383 1.002559 -60.650093 -5.477010 6.300285 6.377996 -23.614088 -9.901669 -11.905381 -17.389246 -12.933706 19.543841 0.867917 2.769138 60.929673 6.386243 9.642758 -12.040067 25.455571 -12.620352 11.717924 15.727404 -12.158502 
325.687469 305.328888 91.964691 138.342345 0.310788 86.413522 -0.944227 -2.267787 7.476224 2.868550 -8.845828 -6.185857 -2.786845 4.631845 1.838480 nan nan nan -0.235000 -2.195539 7.440589 0.542053 -0.841622 -2.145123 8.773167 -2.899514 1.660927 nan nan nan 1.403849 4.034514 0.798974 0.654163 -1.741329 7.627506 1.019717 -1.768616 0.792694 -2.356380 15.935755 3.502649 2.664642 11.243516 -8.409600 -19.401233 0.881545 0.993535 -60.654712 -5.513273 6.296388 6.376087 -23.533478 -9.829311 -11.975039 -17.267712 -12.899452 19.520093 0.795328 2.701921 60.984001 6.409202 9.628659 -12.087830 25.482407 -12.565988 11.775321 15.673883 -12.102324 
325.684082 305.325623 91.961197 138.306262 0.333940 86.412418 -0.904478 -2.233032 7.501829 2.865653 -8.815239 -6.234307 -2.785855 4.641532 1.931405 nan nan nan -0.215529 -2.195762 7.421898 0.560035 -0.860932 -2.115582 8.773450 -2.885581 1.678157 nan nan nan 1.425403 4.011410 0.814419 0.630112 -1.737096 7.585123 1.008818 -1.771341 0.735664 -2.287328 15.907010 3.574913 2.693283 11.338449 -8.324094 -19.360574 0.914787 1.008907 -60.633814 -5.457836 6.357704 6.433695 -23.679868 -9.710675 -12.000336 -17.382293 -12.846231 19.480451 0.833945 2.723228 61.059668 6.358644 9.686124 -12.076458 25.475353 -12.547418 11.768218 15.724996 -12.263672 
325.673492 305.316772 91.964523 138.271594 0.320582 86.408762 -0.903488 -2.196305 7.499199 2.850859 -8.785248 -6.245140 -2.757787 4.625175 2.044403 nan nan nan -0.240481 -2.190185 7.400321 0.566222 -0.846578 -2.103573 8.795865 -2.874961 1.737556 nan nan nan 1.426299 4.019158 0.822926 0.625601 -1.704517 7.601697 1.016989 -1.747796 0.792343 -2.307100 15.974482 3.531186 2.657562 11.292895 -8.478495 -19.399041 0.910506 1.018837 -60.563447 -5.510355 6.333223 6.455503 -23.781136 -9.587177 -12.064877 -17.435200 -12.775590 19.492913 0.770183 2.684370 61.085898 6.391572 9.676011 -12.118516 25.535730 -12.500290 11.784135 15.699324 -12.261005 
325.669250 305.315674 91.962608 138.271231 0.319904 86.406566 -0.903641 -2.195918 7.497749 2.851471 -8.785798 -6.246134 -2.757628 4.625364 2.043833 nan nan nan -0.241300 -2.189649 7.398243 0.565901 -0.845597 -2.103700 8.796459 -2.874966 1.737184 nan nan nan 1.426230 4.019390 0.823037 0.626064 -1.704195 7.600086 1.017418 -1.747181 0.790029 -2.304325 15.972135 3.532752 2.660073 11.294455 -8.475176 -19.397599 0.912951 1.019300 -60.562818 -5.506489 6.335736 6.456378 -23.783710 -9.584491 -12.061908 -17.433430 -12.775049 19.490380 0.769356 2.684051 61.084611 6.389247 9.677843 -12.117863 25.537056 -12.498922 11.782537 15.698618 -12.263044 
325.653381 305.324554 91.939224 138.280908 0.350018 86.320932 -0.885612 -2.262695 7.599119 2.880146 -8.762431 -6.300761 -2.921597 4.601123 2.117897 nan nan nan -0.237093 -2.158318 7.494297 0.600913 -0.817741 -2.133599 8.973859 -2.929517 1.722106 nan nan nan 1.512262 4.045457 1.040890 0.571288 -1.530814 7.195745 1.155771 -1.907719 0.640103 -1.640835 16.566428 2.490094 3.173486 12.201145 -5.834038 -19.550035 0.701770 1.757192 -60.423347 -5.670746 5.997348 6.272685 -23.820673 -9.092421 -11.159508 -17.683123 -13.828844 19.246555 0.554937 3.298641 61.181823 6.727606 9.791148 -12.020628 25.520837 -12.151664 11.288286 15.805585 -13.139726 
325.650940 305.333618 91.930595 138.270580 0.347488 86.311247 -0.897438 -2.265594 7.605303 2.887543 -8.737682 -6.305086 -2.963538 4.617513 2.062867 nan nan nan -0.232952 -2.150939 7.515726 0.592275 -0.805409 -2.166941 8.991296 -2.930459 1.713251 nan nan nan 1.495606 4.048849 1.055994 0.569598 -1.519279 7.184596 1.168280 -1.933582 0.642920 -1.601540 16.546544 2.480074 3.171935 12.183181 -5.804544 -19.525449 0.756943 1.765029 -60.443054 -5.699427 5.964963 6.267712 -23.828710 -9.015248 -11.109115 -17.705726 -13.877903 19.255132 0.506867 3.303604 61.203805 6.783420 9.778602 -11.983837 25.498661 -12.103346 11.228556 15.787622 -13.132879 
325.645599 305.330475 91.928368 138.248723 0.333852 86.319478 -0.915255 -2.291571 7.608426 2.887530 -8.740033 -6.341724 -2.969152 4.656397 2.018742 nan nan nan -0.224341 -2.128468 7.515214 0.562037 -0.781753 -2.215313 8.989623 -2.948204 1.721436 nan nan nan 1.468781 4.054493 1.060597 0.569882 -1.506699 7.171766 1.175389 -1.941381 0.647022 -1.603256 16.511820 2.482883 3.162034 12.182041 -5.794043 -19.502710 0.821521 1.749008 -60.446398 -5.693035 5.972242 6.252793 -23.890743 -8.999216 -11.085028 -17.724465 -13.931467 19.276643 0.469751 3.288142 61.213670 6.789827 9.788421 -11.976792 25.491867 -12.114948 11.218614 15.773238 -13.160811 
325.640320 305.323883 91.924026 138.225456 0.322422 86.337735 -0.923488 -2.324610 7.554628 2.868933 -8.702785 -6.282379 -2.956733 4.667305 1.981239 nan nan nan -0.224406 -2.109744 7.483824 0.548183 -0.770655 -2.218552 8.981277 -2.945027 1.702108 nan nan nan 1.434128 4.070067 1.034366 0.565275 -1.485914 7.172872 1.173090 -1.916785 0.619545 -1.684380 16.482228 2.425374 3.223986 11.920910 -5.760551 -19.411021 0.824862 1.778005 -60.516790 -5.669951 5.981549 6.279201 -23.965522 -8.964040 -11.096021 -17.742271 -13.908861 19.284005 0.468110 3.316231 61.244332 6.757566 9.766197 -11.977443 25.523307 -12.077869 11.194904 15.762180 -13.190827 
325.641663 305.328552 91.936722 138.234851 0.311381 86.301134 -0.926289 -2.293670 7.571246 2.853553 -8.691221 -6.239238 -2.996707 4.622840 1.979561 nan nan nan -0.241696 -2.123954 7.542822 0.547889 -0.791119 -2.240811 9.036656 -2.915039 1.718770 nan nan nan 1.421408 4.078887 0.997110 0.576988 -1.492632 7.285353 1.165064 -1.906780 0.704478 -1.773598 16.496825 2.555050 3.118020 11.750642 -6.234638 -19.414294 0.830827 1.708777 -60.484964 -5.733532 5.946273 6.267206 -23.940848 -8.959061 -11.272099 -17.733098 -13.778564 19.315224 0.407945 3.217707 61.251678 6.788913 9.711666 -11.973542 25.544017 -12.044275 11.270820 15.710674 -13.027905 
325.626038 305.325531 91.938499 138.217528 0.320588 86.333970 -0.935212 -2.279044 7.532034 2.890420 -8.747380 -6.248332 -3.008964 4.623255 1.982438 nan nan nan -0.234406 -2.118099 7.483086 0.545313 -0.793191 -2.216880 9.045864 -2.922401 1.708337 nan nan nan 1.437448 4.081187 0.960278 0.589696 -1.492510 7.296972 1.132476 -1.893454 0.764518 -1.799484 16.429357 2.579533 3.117215 11.631632 -6.332618 -19.429868 0.878855 1.606060 -60.472543 -5.755424 6.011257 6.296812 -23.928492 -8.955671 -11.369793 -17.732305 -13.688253 19.392173 0.350426 3.129130 61.196366 6.763990 9.717658 -11.972553 25.606428 -12.042128 11.329689 15.720312 -12.956704 
325.615875 305.326721 91.932426 138.204105 0.334284 86.350468 -0.924552 -2.274669 7.518539 2.888261 -8.725283 -6.262209 -2.987174 4.660287 2.006707 nan nan nan -0.206007 -2.094177 7.453955 0.543834 -0.808933 -2.215223 9.025931 -2.966610 1.717068 nan nan nan 1.444127 4.068110 0.984137 0.592681 -1.467389 7.187990 1.168973 -1.902740 0.731435 -1.707435 16.552126 2.379567 3.225894 11.748010 -5.889216 -19.443875 0.811618 1.745625 -60.475820 -5.733599 5.995987 6.323022 -23.971284 -8.880961 -11.230453 -17.758871 -13.828168 19.372617 0.349837 3.254047 61.188587 6.760559 9.731984 -12.010050 25.659971 -12.031350 11.233886 15.746191 -13.151712 
